<svg xmlns="http://www.w3.org/2000/svg" xmlns:xlink="http://www.w3.org/1999/xlink" width="40" height="40" viewBox="0 0 40 40">
  <defs>
    <clipPath id="clip-path">
      <rect id="Rectangle_44" data-name="Rectangle 44" width="40" height="40" transform="translate(-78 542)" fill="#fefefe" stroke="#707070" stroke-width="1"/>
    </clipPath>
  </defs>
  <g id="المنيو" transform="translate(78 -542)" clip-path="url(#clip-path)">
    <path id="home" d="M38.953,17.4l0,0L22.633,1.079a3.682,3.682,0,0,0-5.208,0L1.117,17.387,1.1,17.4a3.681,3.681,0,0,0,2.45,6.274c.038,0,.076.005.114.005h.65V35.69A4.315,4.315,0,0,0,8.625,40h6.384a1.172,1.172,0,0,0,1.172-1.172V29.414a1.969,1.969,0,0,1,1.967-1.966h3.765a1.968,1.968,0,0,1,1.966,1.966v9.414A1.172,1.172,0,0,0,25.05,40h6.384a4.315,4.315,0,0,0,4.31-4.31V23.683h.6A3.683,3.683,0,0,0,38.953,17.4Zm-1.66,3.549a1.33,1.33,0,0,1-.947.392H34.572A1.172,1.172,0,0,0,33.4,22.511V35.69a1.968,1.968,0,0,1-1.966,1.966H26.222V29.414a4.315,4.315,0,0,0-4.31-4.31H18.147a4.315,4.315,0,0,0-4.31,4.31v8.242H8.625A1.968,1.968,0,0,1,6.658,35.69V22.511a1.172,1.172,0,0,0-1.172-1.172H3.742l-.055,0a1.337,1.337,0,0,1-.922-2.284h0L19.083,2.736a1.338,1.338,0,0,1,1.893,0L37.288,19.048l.008.007a1.342,1.342,0,0,1,0,1.891Zm0,0" transform="translate(-78.029 542)" fill="#fefefe"/>
  </g>
</svg>
