<svg xmlns="http://www.w3.org/2000/svg" xmlns:xlink="http://www.w3.org/1999/xlink" width="40" height="40" viewBox="0 0 40 40">
  <defs>
    <clipPath id="clip-path">
      <rect id="Rectangle_46" data-name="Rectangle 46" width="40" height="40" transform="translate(-131 -209)" fill="#fefefe" stroke="#707070" stroke-width="1"/>
    </clipPath>
  </defs>
  <g id="نقاطى" transform="translate(131 209)" clip-path="url(#clip-path)">
    <g id="XMLID_1220_" transform="translate(-131 -209)">
      <g id="XMLID_339_">
        <path id="XMLID_349_" d="M37.539,35.285,31.664,25.11A1.568,1.568,0,0,1,32.5,24.6a3.135,3.135,0,0,0,2.115-4.391,1.568,1.568,0,0,1,.432-1.895,3.135,3.135,0,0,0,0-4.874,1.568,1.568,0,0,1-.432-1.895A3.135,3.135,0,0,0,32.5,7.157a1.568,1.568,0,0,1-1.212-1.519A3.135,3.135,0,0,0,27.474,2.6a1.568,1.568,0,0,1-1.751-.843A3.135,3.135,0,0,0,20.971.671a1.568,1.568,0,0,1-1.943,0,3.135,3.135,0,0,0-4.752,1.085,1.568,1.568,0,0,1-1.751.843A3.135,3.135,0,0,0,8.715,5.638,1.568,1.568,0,0,1,7.5,7.157a3.135,3.135,0,0,0-2.115,4.391,1.568,1.568,0,0,1-.432,1.895,3.135,3.135,0,0,0,0,4.874,1.568,1.568,0,0,1,.432,1.895A3.135,3.135,0,0,0,7.5,24.6a1.568,1.568,0,0,1,.832.507L2.461,35.285a.781.781,0,0,0,.881,1.145l4.092-1.11,1.085,4.1a.781.781,0,0,0,1.432.191l5.013-8.683a3.135,3.135,0,0,0,4.065.162,1.568,1.568,0,0,1,1.943,0,3.12,3.12,0,0,0,1.932.671,3.146,3.146,0,0,0,2.133-.834l5.013,8.683a.781.781,0,0,0,1.432-.191l1.085-4.1,4.092,1.11a.781.781,0,0,0,.881-1.145Zm-27.995,1.9-.8-3.027a.781.781,0,0,0-.96-.554l-3.022.82,4.16-7.206a3.135,3.135,0,0,0,3.6,1.941,1.568,1.568,0,0,1,1.423.4Zm13.715-7.03a1.566,1.566,0,0,1-1.321-.3,3.126,3.126,0,0,0-3.875,0,1.572,1.572,0,0,1-2.383-.544,3.127,3.127,0,0,0-3.491-1.681,1.572,1.572,0,0,1-1.911-1.524,3.127,3.127,0,0,0-2.416-3.029A1.572,1.572,0,0,1,6.8,20.88,3.127,3.127,0,0,0,5.939,17.1a1.572,1.572,0,0,1,0-2.445A3.127,3.127,0,0,0,6.8,10.88a1.572,1.572,0,0,1,1.061-2.2,3.127,3.127,0,0,0,2.416-3.029,1.572,1.572,0,0,1,1.911-1.524,3.127,3.127,0,0,0,3.491-1.681A1.572,1.572,0,0,1,18.063,1.9a3.126,3.126,0,0,0,3.875,0,1.572,1.572,0,0,1,2.383.544,3.127,3.127,0,0,0,3.491,1.681,1.572,1.572,0,0,1,1.911,1.524,3.126,3.126,0,0,0,2.416,3.029,1.572,1.572,0,0,1,1.061,2.2,3.127,3.127,0,0,0,.862,3.777,1.572,1.572,0,0,1,0,2.445A3.127,3.127,0,0,0,33.2,20.88a1.572,1.572,0,0,1-1.061,2.2,3.126,3.126,0,0,0-2.416,3.029,1.572,1.572,0,0,1-1.911,1.524,3.126,3.126,0,0,0-3.491,1.681A1.566,1.566,0,0,1,23.259,30.158Zm8.958,3.449a.781.781,0,0,0-.96.554l-.8,3.027-4.4-7.629a1.567,1.567,0,0,1,1.423-.4,3.135,3.135,0,0,0,3.6-1.941l4.16,7.206Z" fill="#fefefe" stroke="#fefefe" stroke-width="0.68"/>
        <path id="XMLID_357_" d="M26.81,25.614a1.011,1.011,0,0,0,.963-1.321l-1.594-4.955,4.2-3.088a1.011,1.011,0,0,0-.6-1.826h-5.2L22.961,9.482a1.011,1.011,0,0,0-1.921,0l-1.622,4.942h-5.2a1.011,1.011,0,0,0-.6,1.826l4.2,3.088-1.594,4.955a1.011,1.011,0,0,0,1.555,1.129L22,22.377l4.219,3.046a1.008,1.008,0,0,0,.592.191Zm-4.219-5.3a1.011,1.011,0,0,0-1.184,0l-2.313,1.67.874-2.716A1.011,1.011,0,0,0,19.6,18.14l-2.3-1.694h2.85a1.011,1.011,0,0,0,.961-.7L22,13.04l.89,2.711a1.011,1.011,0,0,0,.961.7H26.7l-2.3,1.694a1.011,1.011,0,0,0-.364,1.124L24.9,21.98Z" transform="translate(-2 -2)" fill="#fefefe"/>
      </g>
    </g>
  </g>
</svg>
