<svg xmlns="http://www.w3.org/2000/svg" xmlns:xlink="http://www.w3.org/1999/xlink" width="242" height="232" viewBox="0 0 242 232">
  <defs>
    <clipPath id="clip-path">
      <rect id="Rectangle_35" data-name="Rectangle 35" width="242" height="232" transform="translate(74 118)" fill="#fefefe" stroke="#707070" stroke-width="1"/>
    </clipPath>
  </defs>
  <g id="Mask_Group_3" data-name="Mask Group 3" transform="translate(-74 -118)" clip-path="url(#clip-path)">
    <g id="Add_to_Cart-amico" data-name="Add to Cart-amico" transform="translate(68.097 101.57)">
      <g id="freepik--Floor--inject-101">
        <ellipse id="freepik--floor--inject-101-2" data-name="freepik--floor--inject-101" cx="121" cy="69.86" rx="121" ry="69.86" transform="translate(5.903 101.605)" fill="#f5f5f5"/>
      </g>
      <g id="freepik--Shadows--inject-101">
        <path id="freepik--Shadow--inject-101" d="M214.131,183.865a.883.883,0,0,0-.076-.132,1.008,1.008,0,0,0-.071-.081.457.457,0,0,0-.076-.1l-.091-.086a2.137,2.137,0,0,0-.325-.229L100.365,117.932a4.064,4.064,0,0,0-3.647,0L37.851,151.825a1.715,1.715,0,0,0-.213.137.646.646,0,0,0-.076.056,1.463,1.463,0,0,0-.3.345.507.507,0,0,0-.051.086.665.665,0,0,0-.061.142,1.141,1.141,0,0,0-.025.112.777.777,0,0,0,0,.183,1.016,1.016,0,0,0,0,.127,1.164,1.164,0,0,0,.036.142.858.858,0,0,0,.061.137,1.58,1.58,0,0,0,.635.63l113.131,65.3a3.449,3.449,0,0,0,1.082.371,5.08,5.08,0,0,0,.742.061,5.014,5.014,0,0,0,.731-.056,1.8,1.8,0,0,0,.239-.046,3.435,3.435,0,0,0,.655-.223c.071-.031.132-.071.2-.107l58.862-33.889C214.182,184.942,214.375,184.373,214.131,183.865Z" fill="#e0e0e0"/>
      </g>
      <g id="freepik--Device--inject-101">
        <g id="freepik--device--inject-101-2" data-name="freepik--device--inject-101">
          <g id="freepik--Mobile--inject-101">
            <path id="Path_233" data-name="Path 233" d="M209.224,176.377a.619.619,0,0,0-.081-.132.922.922,0,0,0-.066-.081.457.457,0,0,0-.081-.1l-.086-.081a1.9,1.9,0,0,0-.33-.234L98.552,112.217a4.064,4.064,0,0,0-3.647,0l-53.97,31.145-.218.137-.071.061a1.341,1.341,0,0,0-.3.34.747.747,0,0,0-.112.234.721.721,0,0,0,0,.112.747.747,0,0,0,0,.183,1.072,1.072,0,0,0,0,.127,1.453,1.453,0,0,0,.036.142,1.108,1.108,0,0,0,.056.137,1.59,1.59,0,0,0,.65.63l110.012,63.54a3.317,3.317,0,0,0,1.082.366,4.473,4.473,0,0,0,.742.066,4.4,4.4,0,0,0,.732-.061,1.8,1.8,0,0,0,.239-.046,3.116,3.116,0,0,0,.655-.224c.071-.03.132-.066.2-.1l53.949-31.15C209.3,177.454,209.488,176.885,209.224,176.377Zm-11.852-2.256-3.449,2-45.969,26.517a2.791,2.791,0,0,1-.371.183,3.083,3.083,0,0,1-2.367,0,2.792,2.792,0,0,1-.371-.183L57.566,152.247l-4.227-2.433a1.615,1.615,0,0,1-.4-.315c-.437-.478-.3-1.087.4-1.494l49.4-28.519a3.109,3.109,0,0,1,1.915-.533,1.762,1.762,0,0,1,.472.127,1.524,1.524,0,0,1,.244.117l92,53.116a1.046,1.046,0,0,1,0,1.808Z" fill="#455a64"/>
            <path id="Path_234" data-name="Path 234" d="M40.721,143.5a4.089,4.089,0,0,0-1.605,3.023v2.408A4.028,4.028,0,0,0,40.94,152.1l110.027,63.53a3.46,3.46,0,0,0,1.341.411c.163,0,.32.025.508.03h0v-6.634h0a5.919,5.919,0,0,1-.742-.061,3.358,3.358,0,0,1-1.087-.376L40.934,145.465C40,144.932,39.929,144.083,40.721,143.5Z" fill="#37474f"/>
            <path id="Path_235" data-name="Path 235" d="M180.08,189.316a7.34,7.34,0,0,0-6.513,0,2.627,2.627,0,0,0-.975.889c-.584,1.016.508,1.778.975,2.062a7.341,7.341,0,0,0,6.513,0,2.753,2.753,0,0,0,.975-.889C181.64,190.362,180.563,189.6,180.08,189.316Z" fill="#a9d19b"/>
            <path id="Path_236" data-name="Path 236" d="M72.324,130.647a.544.544,0,0,0,0-1.016,1.971,1.971,0,0,0-1.783,0,.544.544,0,0,0,0,1.016A1.971,1.971,0,0,0,72.324,130.647Z" fill="#263238"/>
            <path id="Path_237" data-name="Path 237" d="M69.525,135.524a.508.508,0,0,0,0-.914,1.773,1.773,0,0,0-1.585,0,.508.508,0,0,0,0,.914,1.742,1.742,0,0,0,1.585,0Z" fill="#263238"/>
            <path id="Path_238" data-name="Path 238" d="M72.2,134.015l8.859-5.116c.508-.279.508-.721.051-.986a1.88,1.88,0,0,0-1.7.036l-8.859,5.11c-.483.284-.508.721-.051.986a1.88,1.88,0,0,0,1.7-.03Z" fill="#263238"/>
            <path id="Path_239" data-name="Path 239" d="M208.823,175.915c.752.584.671,1.412-.244,1.941l-53.954,31.15a3.667,3.667,0,0,1-1.824.432v6.629a3.7,3.7,0,0,0,1.819-.437l53.954-31.145a4.018,4.018,0,0,0,1.824-3.16v-2.413A4.089,4.089,0,0,0,208.823,175.915Z" fill="#263238"/>
            <path id="Path_240" data-name="Path 240" d="M66.67,162.188a2.032,2.032,0,0,1,.945,1.565.579.579,0,0,1-.264.549c-.112.066-.538.32-.66.386a.7.7,0,0,1-.681-.076L53.741,157.5a2.032,2.032,0,0,1-.94-1.565.61.61,0,0,1,.239-.538l.681-.4a.7.7,0,0,1,.681.076Z" fill="#455a64"/>
            <path id="Path_241" data-name="Path 241" d="M66.009,162.559l-12.268-7.081c-.508-.3-.94-.086-.94.478a2.032,2.032,0,0,0,.94,1.565l12.268,7.112c.508.3.945.086.945-.478A2.032,2.032,0,0,0,66.009,162.559Z" fill="#263238"/>
            <path id="Path_242" data-name="Path 242" d="M50.246,152.7a2.032,2.032,0,0,1,.945,1.57.594.594,0,0,1-.259.549c-.117.061-.544.32-.66.386a.7.7,0,0,1-.681-.081L43.8,151.79a2.032,2.032,0,0,1-.94-1.565.584.584,0,0,1,.239-.538c.112-.076.559-.33.681-.4a.681.681,0,0,1,.681.076Z" fill="#455a64"/>
            <path id="Path_243" data-name="Path 243" d="M49.591,153.085,43.8,149.748c-.508-.3-.94-.086-.94.478a2.032,2.032,0,0,0,.94,1.565l5.786,3.338c.508.3.94.086.94-.478a2.032,2.032,0,0,0-.94-1.565Z" fill="#263238"/>
          </g>
          <g id="freepik--Window--inject-101">
            <path id="Path_244" data-name="Path 244" d="M197.372,174.1l-3.449,1.991L147.954,202.61a3.576,3.576,0,0,1-.371.183,3.083,3.083,0,0,1-2.367,0,3.58,3.58,0,0,1-.371-.183L57.566,152.222l-4.221-2.438a1.494,1.494,0,0,1-.4-.31c-.437-.478-.3-1.092.4-1.5l49.4-28.514a3.109,3.109,0,0,1,1.915-.508,1.762,1.762,0,0,1,.472.127,1.524,1.524,0,0,1,.244.117l92,53.116a1.046,1.046,0,0,1,0,1.783Z" fill="#a9d19b"/>
            <path id="Path_245" data-name="Path 245" d="M197.372,174.1l-3.449,1.991L147.954,202.61a3.576,3.576,0,0,1-.371.183,3.083,3.083,0,0,1-2.367,0,3.58,3.58,0,0,1-.371-.183L57.566,152.222l-4.221-2.438a1.494,1.494,0,0,1-.4-.31c-.437-.478-.3-1.092.4-1.5l49.4-28.514a3.109,3.109,0,0,1,1.915-.508,1.762,1.762,0,0,1,.472.127,1.524,1.524,0,0,1,.244.117l92,53.116a1.046,1.046,0,0,1,0,1.783Z" fill="#fefefe" opacity="0.8"/>
            <path id="Path_246" data-name="Path 246" d="M63.774,146.054a.244.244,0,0,1-.071-.025l-.239-.142-.584.34a.091.091,0,0,1-.1,0l-.086-.046-.041-.03a.218.218,0,0,1,0-.036l-.244-.859a.117.117,0,0,1,0-.036.086.086,0,0,1,.03-.03l.081-.046a.142.142,0,0,1,.076,0,.188.188,0,0,1,.076.025l.843.508.132-.071a.091.091,0,0,1,.066,0,.152.152,0,0,1,.076.025l.056.03c.025,0,.041.03.041.041s0,.025-.036.041l-.127.076.244.137a.1.1,0,0,1,.041.041s0,.025-.041.041l-.1.061a.188.188,0,0,1-.1-.046Zm-.508-.3-.6-.351.178.594Z" fill="#455a64"/>
            <path id="Path_247" data-name="Path 247" d="M64.323,145.567a1.626,1.626,0,0,1-.732-.224c-.239-.142-.371-.279-.386-.422s.081-.274.284-.4a1.738,1.738,0,0,1,.264-.117,1.411,1.411,0,0,1,.269-.056h.041l.051.1h-.036a.985.985,0,0,0-.381.122c-.137.081-.2.173-.193.274s.112.2.3.3a1.184,1.184,0,0,0,.508.178.838.838,0,0,0,.452-.107l.132-.091a.371.371,0,0,0,.076-.086l-.4-.229-.244.137a.1.1,0,0,1-.071,0,.152.152,0,0,1-.071-.025l-.056-.03s-.041-.03-.041-.041,0-.025.036-.041l.386-.224a.173.173,0,0,1,.081,0,.147.147,0,0,1,.086.03l.564.325a.091.091,0,0,1,.041.03s0,0,0,.03a.655.655,0,0,1-.335.335A1.224,1.224,0,0,1,64.323,145.567Z" fill="#455a64"/>
            <path id="Path_248" data-name="Path 248" d="M69.154,142.671c.188.112.188.284,0,.391a.721.721,0,0,1-.676,0c-.188-.107-.188-.279,0-.391a.752.752,0,0,1,.676,0Z" fill="#455a64"/>
            <path id="Path_249" data-name="Path 249" d="M67.924,142.351c-.34.2-.447.483-.315.732a.218.218,0,0,0,.2.076h0c.112,0,.193-.076.157-.137-.1-.178,0-.376.218-.508a1.346,1.346,0,0,1,.889-.127c.112,0,.224,0,.239-.091h0c0-.056-.046-.1-.132-.122A2.032,2.032,0,0,0,67.924,142.351Z" fill="#455a64"/>
            <path id="Path_250" data-name="Path 250" d="M67.381,142.041c-.508.29-.691.7-.544,1.082,0,.056.107.091.2.086h0c.112,0,.183-.071.157-.132-.117-.31.03-.645.442-.884a2.581,2.581,0,0,1,1.524-.259c.112,0,.218,0,.229-.091h0c0-.056-.056-.107-.152-.117A3.089,3.089,0,0,0,67.381,142.041Z" fill="#455a64"/>
            <path id="Path_251" data-name="Path 251" d="M77.373,137.205a.107.107,0,0,1-.056,0v-.036l.1-.508v-.036l.03-.03.178-.1a.1.1,0,0,1,.056,0,.107.107,0,0,1,.061,0l1.453.838a.03.03,0,0,1,0,.031.036.036,0,0,1,0,.036l-.183.107a.121.121,0,0,1-.061,0,.106.106,0,0,1-.061,0l-1.107-.64-.061.295-.03.03a.137.137,0,0,1-.066,0Z" fill="#455a64"/>
            <path id="Path_252" data-name="Path 252" d="M78.511,136.55a.107.107,0,0,1-.061,0,.046.046,0,0,1,0-.036l.107-.508a.1.1,0,0,1,0-.036l.025-.03.178-.1a.107.107,0,0,1,.061,0,.122.122,0,0,1,.061,0l1.448.838v.036a.036.036,0,0,1,0,.03l-.183.107a.107.107,0,0,1-.061,0h-.061l-1.107-.64-.066.33a.071.071,0,0,1-.036.03.112.112,0,0,1-.061,0Z" fill="#455a64"/>
            <path id="Path_253" data-name="Path 253" d="M79.933,135.635a.137.137,0,0,1,.061,0,.106.106,0,0,1,.061,0l.224.127a.03.03,0,0,1,0,.03.041.041,0,0,1,0,.036l-.208.122H80.01a.107.107,0,0,1-.061,0l-.224-.127a.041.041,0,0,1,0-.036.046.046,0,0,1,0-.036Zm.787.452a.132.132,0,0,1,.122,0l.218.127s.025,0,.025.036a.051.051,0,0,1-.025.036l-.208.117a.127.127,0,0,1-.122,0l-.218-.127s-.025,0-.025-.036a.036.036,0,0,1,.025-.03Z" fill="#455a64"/>
            <path id="Path_254" data-name="Path 254" d="M82.26,135.635a.132.132,0,0,1-.122,0l-.269-.152-.7.4h-.061a.112.112,0,0,1-.061,0l-.157-.091c-.025,0-.036-.025-.041-.041a.086.086,0,0,1,0-.051l-.173-.889a.076.076,0,0,1,.036-.086l.173-.1h.117l.9.508.193-.112h.122l.157.1a.036.036,0,0,1,.025.03.04.04,0,0,1-.025.036l-.193.112.274.157s.025,0,0,.036a.041.041,0,0,1,0,.036Zm-.676-.315-.478-.279.1.508Z" fill="#455a64"/>
            <path id="Path_255" data-name="Path 255" d="M81.65,134.223a.051.051,0,0,1,0-.036v-.036l.843-.508a.127.127,0,0,1,.122,0l.157.091s.025,0,.025.036,0,.025-.025.036l-.63.361.264.183a.372.372,0,0,1,.091-.086l.091-.061a1.255,1.255,0,0,1,.269-.112,1.082,1.082,0,0,1,.284-.051,1.062,1.062,0,0,1,.284,0,1.016,1.016,0,0,1,.269.1.508.508,0,0,1,.2.173.229.229,0,0,1,.041.168.269.269,0,0,1-.086.163,1.113,1.113,0,0,1-.2.152,1.693,1.693,0,0,1-.3.132,1.477,1.477,0,0,1-.279.051,1.354,1.354,0,0,1-.254,0,.837.837,0,0,1-.208-.071s-.025,0-.025-.036,0-.025.025-.036l.183-.107h.117a.625.625,0,0,0,.127.025h.122l.112-.036.1-.051c.086-.051.132-.1.137-.163s-.03-.107-.112-.152a.411.411,0,0,0-.244-.051.589.589,0,0,0-.279.076.746.746,0,0,0-.1.066.3.3,0,0,0-.041.051.1.1,0,0,1,0,.041.1.1,0,0,1-.041.036l-.208.122h-.117Z" fill="#455a64"/>
            <path id="Path_256" data-name="Path 256" d="M57.505,149.88l-.467-.269.62-.361.467.269Z" fill="#455a64"/>
            <path id="Path_257" data-name="Path 257" d="M58.44,149.341l-.935-.538.62-.361.935.538Z" fill="#455a64"/>
            <path id="Path_258" data-name="Path 258" d="M59.375,148.8l-1.4-.813.62-.356,1.407.808Z" fill="#455a64"/>
            <path id="Path_259" data-name="Path 259" d="M60.31,148.264l-1.869-1.082.625-.361,1.864,1.082Z" fill="#455a64"/>
            <path id="Path_260" data-name="Path 260" d="M102.565,122.113a.7.7,0,0,0-.366.056l-2.332,1.341c-.152.086-.112.249.086.366l.853.508a1.016,1.016,0,0,0,.411.122.727.727,0,0,0,.183,0,.508.508,0,0,0,.183-.051l2.332-1.341c.147-.091.112-.249-.091-.366l-.848-.508A1.016,1.016,0,0,0,102.565,122.113Zm-1.372,2.286a.4.4,0,0,1-.173-.061l-.853-.508c-.147-.086-.178-.213-.066-.279l2.332-1.341a.269.269,0,0,1,.1-.03h.056a.411.411,0,0,1,.178.061l.848.508c.147.086.178.213.071.274l-2.332,1.346a.325.325,0,0,1-.157.03Z" fill="#455a64"/>
            <path id="Path_261" data-name="Path 261" d="M100.69,123.4l1.016.579-.366.213a.224.224,0,0,1-.127,0l-.747-.432c-.107-.061-.132-.157-.051-.208Z" fill="#455a64"/>
            <path id="Path_262" data-name="Path 262" d="M100.863,123.306l.437-.254,1.006.579-.442.254Z" fill="#455a64"/>
            <path id="Path_263" data-name="Path 263" d="M101.473,122.956l.432-.254,1.011.584-.437.254Z" fill="#455a64"/>
            <path id="Path_264" data-name="Path 264" d="M102.58,122.392l.726.422c.132.076.107.188-.076.29l-.147.086-1.016-.584.351-.2a.208.208,0,0,1,.163-.015Z" fill="#455a64"/>
            <path id="Path_265" data-name="Path 265" d="M103.068,122.184a.625.625,0,0,1,.432.117l.157.091c.173.1.269.213.2.254l-.107.071-.8-.462Z" fill="#455a64"/>
            <path id="Path_266" data-name="Path 266" d="M96.626,126.034l1.808-1.57.955,1.356-1.25-.34Z" fill="#455a64"/>
          </g>
        </g>
      </g>
      <g id="freepik--Cart--inject-101" transform="translate(9 6)">
        <g id="freepik--cart--inject-101-2" data-name="freepik--cart--inject-101">
          <path id="Path_280" data-name="Path 280" d="M151.485,156.783a7.549,7.549,0,0,0-3.383-5.944,2.339,2.339,0,0,0-2.5-.193h0l-2.311,1.3,4.851,8.367,2.291-1.3h0A2.4,2.4,0,0,0,151.485,156.783Z" fill="#37474f"/>
          <path id="Path_281" data-name="Path 281" d="M145.7,152.2a7.574,7.574,0,0,1,3.383,5.944c0,2.184-1.554,3.048-3.434,1.956a7.574,7.574,0,0,1-3.383-5.944C142.28,151.973,143.819,151.1,145.7,152.2Z" fill="#455a64"/>
          <path id="Path_282" data-name="Path 282" d="M144.52,155.478c0-.853.508-1.245,1.163-.869a2.758,2.758,0,0,1,1.143,2.22c0,.853-.508,1.24-1.163.869A2.784,2.784,0,0,1,144.52,155.478Z" fill="#263238"/>
          <path id="Path_283" data-name="Path 283" d="M149.082,158.145a6.274,6.274,0,0,0-.467-2.286l-5.867-3.409a2.936,2.936,0,0,0-.478,1.707v.081l6.807,3.952A.393.393,0,0,0,149.082,158.145Z" opacity="0.15"/>
          <path id="Path_284" data-name="Path 284" d="M127.162,175.371a7.321,7.321,0,0,1-3.617-.65l-32-18.445c-1.935-.975-4.11-3.505-4.247-5.9l-.98-22.814,1.783-.1.986,22.819c.091,1.626,1.793,3.668,3.256,4.4l32.029,18.45a6.152,6.152,0,0,0,5.375-.31l21.336-12.3c.508-.335.808-.737.787-1.077s-.34-.676-.884-.95l-34.285-19.9c-1.93-.97-4.094-3.505-4.232-5.9l-.478-12.654,1.783-.1.478,12.649c.091,1.636,1.793,3.673,3.251,4.4l34.285,19.908a2.761,2.761,0,0,1,.274,5.116l-21.336,12.3a7.4,7.4,0,0,1-3.561,1.062Z" fill="#455a64"/>
          <path id="Path_285" data-name="Path 285" d="M121.411,174.858a7.549,7.549,0,0,0-3.383-5.944,2.32,2.32,0,0,0-2.5-.193h0l-2.316,1.3,4.851,8.367,2.291-1.3h0A2.4,2.4,0,0,0,121.411,174.858Z" fill="#37474f"/>
          <path id="Path_286" data-name="Path 286" d="M115.615,170.276A7.549,7.549,0,0,1,119,176.224c0,2.179-1.549,3.048-3.434,1.951a7.559,7.559,0,0,1-3.378-5.944C112.2,170.052,113.736,169.163,115.615,170.276Z" fill="#455a64"/>
          <path id="Path_287" data-name="Path 287" d="M114.437,173.552c0-.853.508-1.245,1.163-.869a2.748,2.748,0,0,1,1.143,2.22c0,.848-.508,1.24-1.158.864A2.763,2.763,0,0,1,114.437,173.552Z" fill="#263238"/>
          <path id="Path_288" data-name="Path 288" d="M97.749,161.218a7.549,7.549,0,0,0-3.368-5.949,2.342,2.342,0,0,0-2.5-.2h0l-2.316,1.3,4.836,8.377,2.3-1.3h0A2.388,2.388,0,0,0,97.749,161.218Z" fill="#37474f"/>
          <path id="Path_289" data-name="Path 289" d="M91.973,156.631a7.559,7.559,0,0,1,3.373,5.928c0,2.179-1.56,3.048-3.439,1.946a7.549,7.549,0,0,1-3.368-5.949C88.554,156.392,90.093,155.524,91.973,156.631Z" fill="#455a64"/>
          <path id="Path_290" data-name="Path 290" d="M90.789,159.9c0-.848.508-1.24,1.163-.864a2.769,2.769,0,0,1,1.143,2.22c0,.853-.508,1.24-1.168.869a2.789,2.789,0,0,1-1.138-2.225Z" fill="#263238"/>
          <path id="Path_291" data-name="Path 291" d="M82.489,99.913a5.949,5.949,0,0,1,2.281-6.33l21.29-12.034a3.012,3.012,0,0,1,4.735,1.824l1.478,4.79-1.463.853-1.59-4.841a1.61,1.61,0,0,0-2.54-.889L85.948,95A3.906,3.906,0,0,0,84.46,99.06l1.25,4.6-1.742,1.016Z" fill="#455a64"/>
          <path id="Path_292" data-name="Path 292" d="M115.407,123l-28.6,16.515,41.8,24.13,28.6-16.515Z" fill="#a9d19b"/>
          <path id="Path_293" data-name="Path 293" d="M115.407,123l-28.6,16.515,41.8,24.13,28.6-16.515Z" opacity="0.5"/>
          <path id="Path_294" data-name="Path 294" d="M83.967,104.7l28.306-16.535L115.407,123l-28.6,16.515Z" fill="#a9d19b"/>
          <path id="Path_295" data-name="Path 295" d="M83.967,104.7l28.306-16.535L115.407,123l-28.6,16.515Z" opacity="0.35"/>
          <path id="Path_296" data-name="Path 296" d="M112.268,88.168,115.4,123l41.8,24.13,6.6-29.215Zm14.615,33.487a2.4,2.4,0,0,1-3-1.554l-6.909-17.927a2.256,2.256,0,1,1,4.181-1.59l6.909,17.927a2.4,2.4,0,0,1-1.179,3.144Zm13.05,6.137a2.393,2.393,0,0,1-3-1.549l-6.888-17.927a2.256,2.256,0,1,1,4.176-1.61l6.909,17.927a2.393,2.393,0,0,1-1.194,3.16Zm13.05,6.142a2.393,2.393,0,0,1-3-1.524l-6.9-17.927a2.25,2.25,0,1,1,4.171-1.61l6.909,17.927a2.393,2.393,0,0,1-1.173,3.134Z" fill="#a9d19b"/>
          <path id="Path_297" data-name="Path 297" d="M112.268,88.168,115.4,123l41.8,24.13,6.6-29.215Zm14.615,33.487a2.4,2.4,0,0,1-3-1.554l-6.909-17.927a2.256,2.256,0,1,1,4.181-1.59l6.909,17.927a2.4,2.4,0,0,1-1.179,3.144Zm13.05,6.137a2.393,2.393,0,0,1-3-1.549l-6.888-17.927a2.256,2.256,0,1,1,4.176-1.61l6.909,17.927a2.393,2.393,0,0,1-1.194,3.16Zm13.05,6.142a2.393,2.393,0,0,1-3-1.524l-6.9-17.927a2.25,2.25,0,1,1,4.171-1.61l6.909,17.927a2.393,2.393,0,0,1-1.173,3.134Z" opacity="0.23"/>
          <path id="Path_298" data-name="Path 298" d="M83.967,104.7l2.84,34.808,41.8,24.13,6.6-29.21Zm16.5,34.264a2.4,2.4,0,0,1-3-1.554l-6.9-17.927a2.25,2.25,0,1,1,4.171-1.605l6.909,17.922a2.4,2.4,0,0,1-1.179,3.165Zm13.05,6.137a2.393,2.393,0,0,1-3-1.549l-6.888-17.927a2.256,2.256,0,1,1,4.176-1.61l6.9,17.927a2.393,2.393,0,0,1-1.194,3.16Zm13.05,6.142a2.388,2.388,0,0,1-2.992-1.549l-6.909-17.927a2.256,2.256,0,1,1,4.176-1.61l6.9,17.927a2.393,2.393,0,0,1-1.179,3.16Z" fill="#a9d19b"/>
          <g id="Group_47" data-name="Group 47" opacity="0.15">
            <path id="Path_299" data-name="Path 299" d="M83.967,104.7l2.84,34.808,41.8,24.13,6.6-29.21Zm16.5,34.264a2.4,2.4,0,0,1-3-1.554l-6.9-17.927a2.25,2.25,0,1,1,4.171-1.605l6.909,17.922a2.4,2.4,0,0,1-1.179,3.165Zm13.05,6.137a2.393,2.393,0,0,1-3-1.549l-6.888-17.927a2.256,2.256,0,1,1,4.176-1.61l6.9,17.927a2.393,2.393,0,0,1-1.194,3.16Zm13.05,6.142a2.388,2.388,0,0,1-2.992-1.549l-6.909-17.927a2.256,2.256,0,1,1,4.176-1.61l6.9,17.927a2.393,2.393,0,0,1-1.179,3.16Z"/>
          </g>
          <path id="Path_300" data-name="Path 300" d="M135.2,134.431l28.6-16.515-6.6,29.215-28.6,16.51Z" fill="#a9d19b"/>
          <path id="Path_301" data-name="Path 301" d="M135.2,134.431l28.6-16.515-6.6,29.215-28.6,16.51Z" opacity="0.4"/>
        </g>
      </g>
      <g id="freepik--Bag--inject-101" transform="translate(36.152 7.833)">
        <g id="freepik--bag--inject-101-2" data-name="freepik--bag--inject-101">
          <path id="Path_305" data-name="Path 305" d="M90.205,79.131,118.846,62.6l-2.388-34.452L90.205,43.3Z" fill="#a9d19b"/>
          <path id="Path_306" data-name="Path 306" d="M90.205,79.131,118.846,62.6l-2.388-34.452L90.205,43.3Z" fill="#fefefe" opacity="0.6"/>
          <path id="Path_307" data-name="Path 307" d="M90.205,43.3V40.543l-7.163-1.377L109.3,24.008l2.388,4.135h4.775Z" fill="#a9d19b"/>
          <path id="Path_308" data-name="Path 308" d="M90.205,43.3V40.543l-7.163-1.377L109.3,24.008l2.388,4.135h4.775Z" fill="#fefefe" opacity="0.3"/>
          <path id="Path_309" data-name="Path 309" d="M109.3,24.008v8.27l2.388-1.377V28.143Z" fill="#a9d19b"/>
          <path id="Path_310" data-name="Path 310" d="M109.3,24.008v8.27l2.388-1.377V28.143Z" opacity="0.1"/>
          <path id="Path_311" data-name="Path 311" d="M116.458,28.143h-4.775V30.9Z" fill="#a9d19b"/>
          <path id="Path_312" data-name="Path 312" d="M116.458,28.143h-4.775V30.9Z" opacity="0.2"/>
          <path id="Path_313" data-name="Path 313" d="M83.042,39.167,80.655,73.619l9.55,5.512V40.543Z" fill="#a9d19b"/>
          <path id="Path_314" data-name="Path 314" d="M83.042,39.167,80.655,73.619l9.55,5.512V40.543Z" opacity="0.1"/>
          <path id="Path_315" data-name="Path 315" d="M90.205,40.543,85.43,76.372l4.775,2.758Z" fill="#a9d19b"/>
          <path id="Path_316" data-name="Path 316" d="M90.205,40.543,85.43,76.372l4.775,2.758Z" opacity="0.2"/>
          <path id="Path_317" data-name="Path 317" d="M90.205,79.131l-4.379-5.745-5.171.234Z" fill="#a9d19b"/>
          <path id="Path_318" data-name="Path 318" d="M90.784,38.8c0,.467.325.66.732.427a1.636,1.636,0,0,0,.737-1.275c0-.467-.33-.66-.737-.427A1.631,1.631,0,0,0,90.784,38.8Z" fill="#37474f"/>
          <path id="Path_319" data-name="Path 319" d="M100.553,33.289c0,.467.33.66.737.422a1.62,1.62,0,0,0,.737-1.27c0-.467-.33-.66-.737-.427A1.631,1.631,0,0,0,100.553,33.289Z" fill="#37474f"/>
          <path id="Path_320" data-name="Path 320" d="M91.516,38.267a.249.249,0,0,1-.244-.244V32c0-2.626,2.245-6.055,5.009-7.65,1.524-.889,3-1.062,4.008-.478a2.754,2.754,0,0,1,1.25,2.54v6.1a.249.249,0,0,1-.249.244.244.244,0,0,1-.244-.244v-6.1a2.256,2.256,0,0,0-1.016-2.123c-.853-.508-2.139-.32-3.515.478-2.626,1.524-4.765,4.755-4.765,7.224v6.03a.249.249,0,0,1-.234.244Z" fill="#37474f"/>
          <path id="Path_321" data-name="Path 321" d="M98.044,42.936c0,.467.33.655.737.422a1.62,1.62,0,0,0,.737-1.27c0-.467-.33-.66-.737-.427a1.631,1.631,0,0,0-.737,1.275Z" fill="#455a64"/>
          <path id="Path_322" data-name="Path 322" d="M107.828,37.424c0,.467.33.655.737.422a1.62,1.62,0,0,0,.737-1.27c0-.472-.33-.66-.737-.427A1.62,1.62,0,0,0,107.828,37.424Z" fill="#455a64"/>
          <path id="Path_323" data-name="Path 323" d="M98.79,42.4a.244.244,0,0,1-.239-.239v-6.03c0-2.621,2.245-6.05,5.009-7.62,1.524-.889,3-1.062,4.008-.478a2.761,2.761,0,0,1,1.245,2.54v6.1a.244.244,0,0,1-.244.249.249.249,0,0,1-.249-.249v-6.1a2.238,2.238,0,0,0-1.016-2.118c-.853-.508-2.134-.32-3.515.478-2.626,1.524-4.76,4.755-4.76,7.219v6.01a.249.249,0,0,1-.239.239Z" fill="#455a64"/>
        </g>
      </g>
    </g>
  </g>
</svg>
